<?xml version="1.0" encoding="UTF-8" standalone="no"?>
<!-- Created with Inkscape (http://www.inkscape.org/) -->

<svg
   width="305.47202"
   height="273.33661"
   viewBox="0 0 80.822805 72.320312"
   version="1.1"
   id="svg5"
   xml:space="preserve"
   inkscape:version="1.2.2 (732a01da63, 2022-12-09)"
   sodipodi:docname="logo-dark.svg"
   xmlns:inkscape="http://www.inkscape.org/namespaces/inkscape"
   xmlns:sodipodi="http://sodipodi.sourceforge.net/DTD/sodipodi-0.dtd"
   xmlns="http://www.w3.org/2000/svg"
   xmlns:svg="http://www.w3.org/2000/svg"><sodipodi:namedview
     id="namedview7"
     pagecolor="#ffffff"
     bordercolor="#999999"
     borderopacity="1"
     inkscape:showpageshadow="0"
     inkscape:pageopacity="0"
     inkscape:pagecheckerboard="0"
     inkscape:deskcolor="#d1d1d1"
     inkscape:document-units="px"
     showgrid="false"
     inkscape:zoom="0.89263468"
     inkscape:cx="66.096468"
     inkscape:cy="330.48234"
     inkscape:window-width="3440"
     inkscape:window-height="1377"
     inkscape:window-x="1912"
     inkscape:window-y="229"
     inkscape:window-maximized="1"
     inkscape:current-layer="layer1" /><defs
     id="defs2" /><g
     inkscape:label="Layer 1"
     inkscape:groupmode="layer"
     id="layer1"
     transform="translate(26.80619,19.560693)"><path
       style="fill:#000000;stroke-width:0.352778"
       d="m -26.79719,52.494157 -0.009,-0.26458 5.3561,-35.45416 5.3561,-35.45417 0.20865,-0.24372 0.20866,-0.24373 L -4.233,2.4205767 7.21069,24.007347 l 5.126855,9.6132 5.12684,9.61319 h 0.24177 0.24177 l 4.88353,-9.34376 4.88352,-9.34377 0.20778,-0.005 0.20778,-0.005 0.44179,2.96941 0.44176,2.96941 -5.58744,10.57946 -5.58745,10.57946 -0.21336,-0.13186 -0.21334,-0.13186 -15.464525,-29.11971 -15.46452,-29.1197103 -0.23876,0.26868 -0.23875,0.26867 -4.10918,26.9874903 -4.10918,26.9875 0.005,0.61736 0.005,0.61734 h 5.11528 5.11528 l -3.5e-4,-0.26459 -3.6e-4,-0.26458 1.60845,-10.75972 1.60844,-10.75972 0.1748,-0.51891 0.17481,-0.5189 1.50129,2.73322 1.50129,2.73321 -1.52014,9.95652 -1.52014,9.95652 -0.18309,0.79375 -0.1831,0.79375 h -8.98917 -8.98946 l -0.008,-0.26458 z M 0,33.866667 l -10.03174,-18.89205 -0.13312,0.63581 -0.13312,0.63582 -2.34651,14.99305 -2.34652,14.99305 -1.84189,0.10663 -1.8419,0.10663 -0.006,-0.63579 -0.006,-0.6358 3.22587,-20.81389 3.22587,-20.8138803 0.13188,-0.14699 0.13189,-0.14699 0.12406,0.14699 0.12407,0.14699 12.84052,24.1449403 12.840515,24.14495 0.11406,0.4613 0.11407,0.4613 h -2.07676 -2.07676 z m 35.862745,17.92193 -0.19908,-0.97014 -2.65746,-17.63888 -2.65747,-17.63888 -0.19124,-0.85121 -0.19124,-0.8512 -5.94555,11.03357 -5.94553,11.03358 -0.30459,0.30459 -0.30458,0.30458 -13.745325,-25.83279 -13.74531,-25.83279 -1.17368,-2.20486 -1.17368,-2.20486 2.22846,0.008 2.22845,0.008 12.7,23.9602297 12.700005,23.9602303 0.35277,-0.46842 0.35279,-0.46841 6.86824,-12.72158 6.86824,-12.7215903 0.10645,0.10645 0.10644,0.10645 3.69752,24.3049403 3.69749,24.30493 0.20375,0.97014 0.20375,0.97014 h -1.94028 -1.94028 l -0.19906,-0.97014 z m 7.04477,-0.17639 -0.18579,-1.14652 -4.0442,-26.67214 -4.0442,-26.6721303 1.47562,-2.78481 1.4756,-2.7848 0.12107,0.70555 0.12106,0.70556 4.29301,27.8694303 4.29302,27.86945 1.68737,0.108 1.68739,0.108 -0.18323,-0.81356 -0.18326,-0.81355 -0.90062,-6.17361 -0.90063,-6.17362 -3.86671,-25.1307403 -3.86671,-25.1307597 v -0.18105 -0.18105 h -1.18813 -1.18813 l -2.57323,4.8507 -2.57321,4.8506897 -3.77443,7.05556 -3.77443,7.05555 -3.26385,6.1736103 -3.26383,6.17361 -0.26024,0.2825 -0.26024,0.28251 -1.02278,-1.96388 -1.02276,-1.96387 1.0705,-2.0228 1.07051,-2.02279 8.63088,-16.3125303 8.63088,-16.3125297 4.0586,-0.003 4.05859,-0.003 5.3878,35.71876 5.38781,35.71874 -0.01,0.44096 -0.01,0.44097 h -5.45208 -5.45207 z"
       id="path385" /></g></svg>
